<?xml version="1.0" standalone="no"?>
<!DOCTYPE svg PUBLIC "-//W3C//DTD SVG 20010904//EN"
 "http://www.w3.org/TR/2001/REC-SVG-20010904/DTD/svg10.dtd">
<svg version="1.0" xmlns="http://www.w3.org/2000/svg"
 width="446.000000pt" height="340.000000pt" viewBox="0 0 446.000000 340.000000"
 preserveAspectRatio="xMidYMid meet">
<metadata>
Created by potrace 1.16, written by Peter Selinger 2001-2019
</metadata>
<g transform="translate(0.000000,340.000000) scale(0.100000,-0.100000)"
fill="#000000" stroke="none">
<path d="M0 1700 l0 -1700 2230 0 2230 0 0 1700 0 1700 -2230 0 -2230 0 0
-1700z m2476 1345 c121 -26 230 -63 334 -115 88 -44 220 -132 220 -146 0 -4
-7 -1 -15 6 -12 10 -24 6 -67 -23 -280 -185 -425 -277 -438 -277 -8 -1 84 -49
205 -109 250 -123 371 -199 478 -301 206 -195 314 -472 279 -712 -27 -178
-227 -477 -422 -628 l-44 -35 53 70 c66 85 117 189 133 270 18 95 13 267 -11
358 -43 163 -140 316 -298 471 -191 188 -421 317 -763 430 -111 37 -204 65
-207 63 -2 -3 14 -11 36 -18 l40 -14 -160 -215 c-88 -118 -168 -226 -177 -240
-9 -14 -31 -44 -50 -67 -23 -29 -29 -43 -20 -47 7 -3 2 -4 -12 -2 -95 16 -97
16 -51 1 25 -8 172 -44 328 -80 479 -112 644 -167 797 -269 189 -126 287 -291
288 -486 1 -99 -10 -147 -59 -252 l-35 -76 -82 -37 c-102 -47 -282 -93 -389
-100 -66 -3 -73 -3 -39 5 60 13 157 67 192 107 97 110 130 315 71 436 -64 131
-235 224 -516 281 -125 25 -621 102 -583 90 16 -5 17 -7 2 -21 -23 -24 -289
-344 -292 -353 -1 -4 16 -31 38 -61 40 -52 40 -53 5 -14 -95 103 -181 252
-229 395 -24 72 -46 187 -28 146 7 -17 13 -13 52 33 l43 51 26 -22 c14 -13 8
-3 -15 22 -51 58 -94 121 -128 189 -24 47 -27 61 -21 115 25 242 98 445 227
634 68 100 242 274 338 337 164 109 337 178 530 211 52 9 97 18 100 21 10 10
258 -6 336 -22z"/>
</g>
</svg>
